<?xml version="1.0" standalone="no"?>
<!DOCTYPE svg PUBLIC "-//W3C//DTD SVG 20010904//EN"
 "http://www.w3.org/TR/2001/REC-SVG-20010904/DTD/svg10.dtd">
<svg version="1.0" xmlns="http://www.w3.org/2000/svg"
 width="649.000000pt" height="644.000000pt" viewBox="0 0 649.000000 644.000000"
 preserveAspectRatio="xMidYMid meet">

<g transform="translate(0.000000,644.000000) scale(0.100000,-0.100000)"
fill="#000000" stroke="none">
<path d="M3666 6105 c-57 -29 -63 -30 -47 -11 9 11 7 15 -8 19 -11 2 -24 0
-30 -6 -7 -7 -15 -6 -27 4 -11 9 -19 10 -21 3 -2 -6 -17 -8 -35 -6 -20 3 -29
1 -24 -6 4 -7 -8 -8 -34 -5 -23 3 -40 2 -40 -4 0 -6 -33 -10 -80 -9 -61 1 -80
-2 -80 -13 0 -9 -8 -11 -25 -7 -17 4 -25 2 -25 -6 0 -9 -3 -8 -10 2 -8 13 -13
13 -30 2 -17 -10 -25 -10 -36 -1 -11 9 -14 8 -14 -9 0 -29 -17 -36 -45 -18
-20 13 -24 13 -29 1 -8 -22 -47 -20 -39 3 5 14 3 15 -8 5 -7 -7 -27 -13 -44
-13 -18 0 -35 -3 -39 -7 -3 -4 -27 -8 -53 -10 -25 -1 -51 -7 -57 -13 -5 -5
-23 -10 -39 -10 -24 0 -28 -3 -22 -17 5 -15 4 -16 -6 -5 -23 22 -49 14 -60
-18 -11 -32 -24 -39 -32 -17 -3 8 -10 6 -21 -8 -8 -11 -16 -15 -16 -9 0 16
-53 25 -62 11 -4 -7 -13 -12 -20 -13 -45 -4 -73 -27 -45 -37 6 -2 -9 -3 -35
-1 -36 2 -48 -1 -48 -12 0 -8 -4 -14 -10 -14 -5 0 -10 5 -10 10 0 16 -32 12
-53 -7 -15 -13 -21 -15 -24 -5 -7 19 -24 14 -21 -5 2 -13 -5 -19 -24 -21 -16
-2 -28 -9 -28 -17 0 -9 -6 -12 -15 -9 -8 4 -15 1 -15 -5 0 -8 -11 -6 -31 4
-17 9 -33 14 -37 11 -3 -3 0 -6 6 -6 27 0 10 -27 -18 -28 -59 -4 -65 -5 -78
-23 -7 -10 -19 -16 -26 -13 -8 3 -17 1 -21 -5 -3 -6 -19 -11 -35 -11 -21 0
-37 -10 -58 -36 -23 -28 -31 -32 -35 -20 -9 22 -25 20 -23 -1 0 -11 -6 -17
-16 -17 -10 1 -15 -3 -12 -8 4 -6 -1 -8 -14 -4 -11 4 -23 3 -26 -2 -3 -5 -17
-7 -31 -4 -23 4 -30 -4 -26 -30 0 -5 -3 -8 -9 -8 -5 0 -10 5 -10 10 0 6 -4 10
-10 10 -5 0 -10 -7 -10 -15 0 -8 -9 -15 -19 -15 -11 0 -23 -9 -26 -20 -7 -23
-25 -27 -25 -5 0 8 -4 15 -10 15 -5 0 -10 -7 -10 -15 0 -8 -7 -15 -15 -15 -9
0 -18 -7 -21 -15 -4 -10 -14 -13 -30 -9 -19 5 -24 2 -24 -14 0 -13 -11 -25
-30 -34 -17 -7 -33 -21 -36 -30 -6 -22 -30 -24 -37 -4 -4 9 -14 12 -28 9 -20
-6 -20 -7 -5 -18 14 -11 14 -14 2 -24 -10 -8 -16 -9 -21 -1 -9 15 -25 2 -25
-21 0 -21 -15 -26 -24 -6 -4 6 -4 2 -2 -10 2 -13 0 -23 -5 -23 -5 0 -9 4 -9 9
0 5 -18 0 -40 -12 -29 -16 -38 -27 -34 -39 4 -13 1 -16 -10 -12 -11 4 -16 0
-16 -11 0 -9 -9 -19 -20 -22 -11 -3 -20 -9 -20 -14 0 -5 -7 -9 -15 -9 -8 0
-17 -11 -21 -25 -3 -14 -10 -23 -14 -20 -4 3 -10 -4 -13 -15 -3 -11 -11 -20
-17 -20 -7 0 -10 7 -6 15 9 26 -2 17 -28 -22 -14 -20 -23 -40 -20 -45 3 -4 -1
-8 -9 -8 -8 0 -22 -11 -31 -25 -11 -16 -22 -22 -33 -18 -14 5 -15 1 -10 -25 5
-24 3 -32 -8 -32 -8 0 -15 -4 -15 -10 0 -13 -37 -50 -50 -50 -5 0 -7 -7 -3
-16 4 -12 0 -15 -18 -12 -20 2 -24 -1 -23 -22 1 -14 -5 -28 -12 -33 -7 -4 -11
-14 -8 -22 4 -8 -1 -18 -10 -21 -10 -4 -14 -13 -11 -24 4 -12 -3 -25 -17 -36
-14 -12 -22 -27 -20 -38 4 -18 3 -19 -13 -3 -21 22 -20 22 -21 -14 -1 -20 -13
-42 -37 -67 -20 -20 -36 -40 -37 -44 0 -4 -3 -15 -6 -23 -4 -8 -4 -24 -1 -35
6 -24 -14 -32 -30 -11 -11 15 -12 15 -13 0 0 -9 7 -22 15 -29 8 -7 12 -16 9
-22 -3 -5 -11 -4 -19 2 -11 9 -14 5 -17 -17 -3 -27 0 -40 22 -83 13 -25 6 -25
-36 1 -19 11 -34 16 -34 10 0 -6 5 -11 10 -11 21 0 9 -28 -15 -34 -14 -4 -25
-13 -25 -21 0 -20 -39 -19 -46 0 -7 17 -25 10 -20 -8 1 -7 1 -10 -1 -7 -6 10
-93 2 -108 -10 -8 -6 -19 -9 -24 -5 -6 3 -29 1 -51 -5 -27 -7 -46 -7 -58 -1
-13 7 -22 7 -30 -1 -6 -6 -35 -12 -64 -13 l-53 -1 -3 -263 c-2 -238 -1 -263
14 -257 8 3 26 6 39 6 15 0 25 7 29 23 5 18 8 19 16 7 7 -11 12 -12 21 -3 9 9
17 9 33 1 19 -10 19 -9 8 4 -7 9 -9 19 -4 22 13 8 99 -2 120 -13 11 -6 28 -5
47 3 37 16 45 18 44 10 0 -4 15 -16 33 -27 23 -14 29 -21 18 -25 -19 -6 -50
-33 -50 -44 0 -4 9 -8 20 -8 11 0 20 -4 20 -10 0 -5 -4 -10 -10 -10 -5 0 -7
-7 -4 -15 4 -8 -1 -26 -10 -40 -10 -16 -12 -25 -5 -25 6 0 8 -7 5 -16 -4 -12
-2 -15 9 -10 8 3 15 1 15 -5 0 -5 -10 -14 -22 -19 l-23 -9 23 0 c13 -1 22 -7
22 -17 0 -10 -6 -14 -15 -10 -17 6 -22 -29 -5 -39 6 -3 10 -1 10 6 0 10 3 10
11 2 9 -9 9 -20 0 -43 -6 -18 -8 -37 -4 -44 4 -6 8 -38 9 -71 1 -33 0 -52 -3
-42 -6 21 -19 22 -27 1 -5 -14 14 -44 28 -44 3 0 15 -9 26 -20 13 -13 16 -21
8 -26 -7 -4 -14 -2 -16 4 -2 7 -10 12 -17 12 -16 0 -28 -27 -13 -32 6 -2 3
-11 -8 -22 -17 -17 -17 -19 -1 -31 22 -16 22 -45 1 -45 -12 0 -14 -4 -7 -12 9
-13 9 -90 -1 -106 -2 -4 1 -14 7 -23 11 -15 18 -19 34 -19 4 0 -3 -7 -15 -16
-13 -9 -21 -22 -18 -29 3 -8 0 -16 -7 -19 -9 -3 -9 -7 1 -14 11 -7 15 -32 21
-120 1 -7 6 -10 12 -6 6 3 15 0 20 -7 14 -22 11 -29 -13 -30 -20 -1 -18 -3 10
-15 31 -14 38 -39 7 -27 -11 4 -13 1 -9 -11 3 -9 12 -16 20 -16 17 0 18 -16 2
-24 -10 -5 -10 -7 0 -12 6 -3 12 -12 12 -19 0 -8 7 -11 18 -9 15 4 17 -3 17
-68 0 -58 4 -76 18 -86 9 -7 17 -20 17 -28 0 -8 7 -28 15 -44 11 -22 12 -29 2
-33 -9 -3 -9 -8 2 -20 9 -12 12 -31 8 -59 -8 -58 1 -98 20 -91 9 4 13 0 11 -9
-2 -8 11 -26 27 -41 l30 -25 -27 -11 c-35 -13 -37 -24 -3 -15 18 5 25 2 25 -9
0 -8 5 -17 12 -19 6 -2 11 -19 11 -36 0 -31 2 -32 34 -26 19 4 33 2 33 -4 0
-5 -7 -9 -16 -8 -9 0 -19 -5 -21 -11 -3 -8 3 -13 14 -13 15 0 15 -2 3 -10 -12
-7 -10 -12 12 -30 23 -18 26 -25 18 -46 -7 -17 -7 -23 0 -19 6 3 10 13 10 21
0 8 5 14 10 14 13 0 13 -16 0 -40 -10 -18 -8 -19 20 -13 30 5 31 5 25 -23 -4
-16 -8 -34 -10 -41 -2 -7 2 -10 9 -7 8 3 23 -7 35 -22 25 -32 28 -52 4 -33
-15 12 -16 12 -10 -4 4 -10 7 -23 7 -28 0 -5 5 -9 11 -9 16 0 38 -31 39 -54 0
-16 2 -16 16 -5 13 10 17 10 25 -2 13 -21 11 -29 -6 -23 -10 4 -15 0 -15 -11
0 -9 4 -14 8 -11 11 7 44 -32 37 -44 -6 -9 34 -42 44 -36 3 2 14 -6 23 -19 15
-20 15 -24 3 -29 -8 -3 -15 -11 -15 -17 0 -7 8 -5 19 5 24 22 41 13 41 -20 0
-20 3 -23 16 -16 27 15 63 3 62 -22 -1 -11 -5 -26 -10 -33 -5 -6 -5 -14 0 -17
5 -3 7 -17 4 -31 -3 -20 0 -25 16 -25 11 0 22 -7 26 -15 3 -9 18 -15 36 -15
16 0 30 -5 30 -11 0 -6 -7 -9 -15 -5 -8 3 -15 1 -15 -4 0 -12 41 -35 58 -32 9
2 11 -4 7 -21 -4 -14 -2 -28 4 -31 6 -4 11 -20 11 -36 0 -24 -7 -32 -40 -46
-31 -14 -42 -26 -50 -53 -5 -19 -7 -37 -5 -40 3 -2 5 1 5 8 0 7 5 9 11 5 8 -5
6 -10 -6 -16 -12 -7 -15 -17 -10 -35 5 -22 3 -24 -17 -18 -13 3 -18 3 -13 -2
6 -4 11 -22 12 -39 2 -24 -3 -33 -18 -37 -10 -3 -27 -24 -37 -46 -11 -23 -22
-38 -27 -33 -4 4 -4 -3 -1 -15 8 -24 -8 -32 -18 -10 -4 6 -4 2 -2 -10 3 -15
-1 -23 -10 -23 -14 0 -17 -10 -15 -46 2 -14 -5 -23 -18 -27 -22 -5 -38 -33
-27 -44 4 -4 13 3 22 15 8 12 20 22 25 22 6 0 3 -7 -5 -16 -9 -8 -16 -19 -16
-24 0 -5 -10 -12 -22 -16 -25 -8 -78 -57 -78 -72 0 -6 -9 -8 -20 -5 -17 4 -20
0 -20 -23 0 -23 2 -26 10 -14 7 11 10 12 10 2 0 -8 -9 -16 -20 -19 -11 -3 -20
-12 -20 -20 0 -8 4 -11 10 -8 5 3 10 -1 10 -9 0 -9 5 -16 11 -16 5 0 7 -5 3
-12 -4 -6 2 -18 12 -26 16 -12 16 -14 2 -9 -22 8 -33 -9 -15 -20 20 -11 26
-35 15 -57 -15 -28 8 -46 27 -20 14 19 14 19 15 -1 0 -12 -5 -26 -12 -33 -9
-9 -8 -12 4 -12 9 0 19 7 22 16 5 13 9 14 21 4 9 -7 19 -10 22 -6 4 4 1 11 -7
16 -12 7 -12 12 -2 22 9 9 12 9 12 -4 0 -9 6 -18 13 -21 9 -3 9 -8 -2 -21 -8
-10 -21 -14 -32 -11 -11 4 -19 2 -19 -5 0 -6 5 -8 10 -5 6 3 10 2 10 -4 0 -6
12 -14 28 -17 15 -4 33 -16 40 -26 15 -21 37 -24 29 -4 -7 16 8 30 41 40 17 6
22 3 22 -9 0 -11 -5 -15 -15 -11 -15 5 -39 -26 -28 -38 12 -11 23 -6 23 12 0
14 2 15 10 2 7 -12 13 -13 27 -4 10 7 18 18 17 25 -1 8 10 15 23 16 62 7 63 7
57 26 -4 14 -2 18 7 15 8 -3 13 -12 11 -21 -2 -15 1 -15 30 -3 18 8 34 20 37
28 3 11 1 11 -12 -1 -11 -9 -17 -10 -17 -2 0 15 61 52 73 44 5 -3 6 4 2 16 -5
15 -2 21 10 21 8 0 19 8 22 18 4 9 12 22 17 29 32 37 37 44 32 52 -3 5 1 14 9
21 7 6 11 18 8 26 -3 8 -1 14 4 14 21 0 63 49 57 65 -5 11 0 18 15 22 12 3 24
16 27 29 3 13 10 24 16 24 5 0 6 5 2 11 -3 6 -1 15 5 19 7 4 13 20 15 35 2 16
8 31 15 33 16 5 14 22 -4 22 -8 0 -15 4 -15 9 0 5 8 8 18 7 13 -1 17 6 16 31
-2 29 0 31 17 20 27 -17 38 2 13 22 -21 17 -21 17 15 18 37 2 141 -42 141 -59
0 -5 5 -6 10 -3 6 4 31 -3 55 -14 25 -12 48 -21 52 -21 14 -1 63 -49 63 -62 0
-10 3 -9 9 1 8 12 13 12 33 -1 22 -15 25 -15 35 0 10 15 12 14 20 -7 9 -21 16
-24 64 -25 43 -1 61 -7 91 -29 20 -15 38 -23 40 -18 1 6 13 8 25 5 12 -3 19
-12 17 -18 -3 -9 9 -13 42 -15 26 0 53 -6 61 -12 7 -6 13 -8 13 -3 1 5 8 -4
17 -21 14 -24 18 -26 21 -12 4 21 32 23 32 3 0 -11 10 -14 41 -12 27 2 42 -1
46 -10 6 -16 83 -20 83 -5 0 5 6 11 14 14 8 3 13 -1 12 -11 -1 -12 6 -16 22
-15 13 2 32 -1 42 -7 13 -7 20 -6 24 3 3 9 8 7 15 -5 7 -10 19 -14 31 -11 12
3 20 0 20 -7 0 -10 4 -9 16 1 13 10 17 10 25 -2 8 -12 10 -12 18 0 6 9 18 12
37 7 46 -11 78 -13 90 -4 14 10 46 -1 38 -13 -3 -5 -1 -9 5 -9 5 0 13 5 16 10
4 6 15 8 25 5 9 -3 30 -1 45 5 20 8 31 7 42 -1 11 -10 15 -8 20 9 3 12 10 22
15 22 5 0 6 -10 2 -22 -6 -20 -5 -21 8 -10 18 14 46 16 131 9 31 -3 57 -1 57
3 0 5 17 7 38 4 20 -2 31 -2 25 2 -23 10 -14 25 11 18 13 -3 27 -1 30 5 12 18
39 13 32 -5 -5 -14 -4 -15 8 -5 8 7 23 10 33 7 11 -3 35 6 61 23 37 24 48 27
71 18 16 -6 37 -7 47 -2 10 4 29 9 42 11 13 1 30 8 37 14 8 7 19 9 24 6 5 -4
14 2 20 11 8 15 13 16 29 6 24 -14 36 -5 20 14 -10 12 -7 13 15 8 17 -5 33 -2
44 6 12 10 15 10 9 2 -4 -7 -2 -13 4 -13 6 0 13 7 16 15 4 8 10 12 15 9 5 -3
25 7 45 23 20 15 46 27 58 28 14 0 21 6 19 19 -1 13 2 15 10 7 6 -6 28 -11 48
-11 28 0 38 5 42 20 3 11 12 20 21 20 9 0 16 7 16 16 0 12 6 15 25 10 18 -5
25 -2 25 9 0 8 8 15 18 15 10 0 23 5 30 12 8 8 15 8 26 -1 11 -10 16 -9 24 5
7 12 11 13 17 4 4 -7 2 -16 -6 -21 -14 -8 -9 -16 43 -66 11 -11 15 -25 12 -40
-4 -15 -2 -23 6 -23 7 0 10 7 6 15 -8 21 11 19 23 -2 9 -16 12 -16 20 -3 6 8
14 11 18 6 4 -5 2 -11 -4 -13 -18 -6 -16 -38 2 -53 8 -7 15 -19 15 -26 0 -8 5
-14 11 -14 6 0 26 -13 44 -29 18 -16 39 -31 47 -34 10 -3 10 -7 2 -17 -9 -9
-8 -19 5 -41 15 -27 51 -41 51 -19 0 15 19 12 37 -6 14 -14 14 -16 -2 -28 -16
-11 -15 -15 5 -52 12 -21 29 -43 37 -48 8 -4 22 -17 31 -27 24 -27 107 -27
124 1 13 21 62 28 73 10 10 -17 25 -11 25 10 0 11 5 20 11 20 6 0 9 -6 6 -14
-3 -8 1 -20 9 -27 12 -10 17 -8 29 7 8 10 15 25 15 32 0 16 -17 16 -23 0 -4
-10 -7 -10 -18 -1 -7 7 -11 14 -8 16 2 1 22 12 44 23 33 17 40 25 40 50 0 24
4 28 22 26 12 -2 33 4 47 13 20 14 28 14 45 3 11 -7 22 -17 24 -23 2 -5 2 -1
-1 10 -8 36 -5 75 9 101 11 22 11 27 -1 35 -8 5 -21 7 -27 4 -7 -2 -13 0 -13
5 0 6 10 10 23 10 34 0 40 11 14 25 -12 6 -21 19 -21 28 1 9 -3 14 -8 11 -5
-3 -16 4 -25 15 -14 20 -17 21 -38 7 -25 -16 -37 -12 -28 10 3 8 0 14 -7 14
-10 0 -10 3 -1 14 8 9 8 16 2 20 -6 4 -7 14 -4 23 6 15 5 16 -9 3 -9 -8 -14
-18 -11 -22 6 -11 -5 -10 -28 2 -10 6 -19 16 -19 22 0 7 5 6 15 -2 13 -10 18
-11 28 -1 9 10 8 15 -7 26 -15 11 -16 15 -5 19 41 13 43 14 22 15 -13 1 -23 6
-23 11 0 6 -5 10 -11 10 -6 0 -9 -7 -5 -15 3 -8 1 -15 -4 -15 -15 0 -51 43
-46 56 2 6 -8 21 -24 32 -15 12 -35 35 -43 52 -14 27 -14 30 1 30 15 1 15 2
-1 11 -14 9 -22 7 -32 -8 -13 -16 -15 -14 -16 27 -1 25 -2 51 -2 58 1 8 -6 10
-20 6 -19 -6 -20 -5 -9 9 12 14 11 21 -2 48 -19 39 -19 39 -2 39 8 0 14 6 13
13 -1 36 4 47 23 47 11 0 23 7 26 15 4 8 13 15 21 15 10 0 14 7 10 20 -3 13 0
20 9 20 21 0 54 37 54 62 0 17 3 19 12 10 9 -9 17 -5 35 14 12 14 23 29 23 35
0 5 11 9 24 9 30 0 44 19 25 32 -11 7 -9 8 6 6 11 -2 20 2 20 7 1 17 29 55 41
55 17 0 64 58 64 80 0 25 25 26 40 3 11 -17 11 -17 6 -1 -3 12 0 18 9 18 8 0
15 5 15 10 0 6 -8 10 -17 10 -10 0 -3 8 17 17 46 22 45 20 30 38 -13 16 -9 18
25 16 16 -2 17 0 5 8 -12 8 -12 12 3 29 9 10 17 24 17 30 0 7 7 12 15 12 8 0
15 6 15 13 0 23 21 37 42 26 22 -12 23 -1 1 23 -9 10 -13 21 -9 25 4 4 11 1
16 -7 7 -10 9 -3 7 23 -3 30 0 37 14 37 10 0 20 -6 22 -12 3 -8 6 -6 6 4 1 9
10 23 21 31 11 8 18 16 15 19 -9 8 21 58 30 50 4 -4 5 6 3 21 -4 19 -1 30 8
34 19 7 18 23 -2 23 -14 0 -14 2 1 17 12 12 19 13 24 4 9 -14 23 14 41 87 8
29 19 52 27 52 7 0 16 12 19 27 4 15 13 38 20 52 16 30 18 45 5 37 -4 -3 -13
6 -19 19 -9 20 -9 25 2 25 8 0 16 10 19 22 5 19 8 20 23 7 14 -11 16 -11 10 0
-5 8 -3 16 5 21 10 7 10 14 1 34 -7 16 -8 26 -2 26 6 0 10 -4 10 -10 0 -5 7
-10 16 -10 11 0 15 6 11 20 -3 11 -1 23 4 26 15 9 10 27 -6 20 -19 -7 -19 -7
2 40 19 43 25 113 11 130 -5 8 -3 14 7 18 8 3 15 18 15 34 0 15 6 34 12 40 9
9 10 17 2 30 -10 15 -8 18 8 18 11 0 49 -29 85 -63 54 -52 71 -63 99 -63 32 0
34 -2 23 -21 -10 -19 -9 -20 12 -14 19 6 21 4 16 -14 -4 -17 -1 -21 11 -19 19
4 82 -50 82 -69 0 -11 5 -11 21 -3 11 7 27 9 35 6 12 -5 14 43 14 324 0 278
-2 330 -14 330 -8 0 -20 13 -27 29 -8 18 -18 27 -27 24 -20 -8 -60 17 -66 42
-7 26 -36 42 -36 20 0 -19 -11 -19 -36 -1 -17 13 -17 17 -6 37 13 20 12 21
-12 15 -19 -5 -26 -2 -26 8 0 18 -16 28 -43 30 -20 1 -38 26 -19 26 6 0 8 10
5 21 -6 21 -6 21 -21 3 -14 -18 -14 -18 -8 0 5 13 2 17 -8 13 -9 -4 -13 -1
-11 6 8 21 -12 42 -27 30 -10 -9 -13 -1 -15 40 -2 33 -8 54 -18 59 -18 11 -20
48 -2 49 6 0 -1 6 -17 14 l-30 13 22 13 c23 15 29 43 11 54 -6 4 -8 13 -5 21
3 8 -3 23 -14 34 -23 23 -26 42 -6 34 8 -3 16 3 19 15 4 15 0 21 -12 21 -29 0
-54 35 -47 65 4 14 11 25 17 25 8 0 8 5 -1 15 -6 8 -9 19 -6 24 6 8 -3 31 -22
61 -2 2 -8 -2 -13 -10 -8 -12 -9 -11 -5 6 4 11 -1 29 -9 40 -8 10 -15 27 -15
37 0 10 -4 16 -9 12 -5 -3 -22 6 -37 20 -24 22 -25 30 -1 26 4 0 7 3 7 9 0 6
3 9 8 9 19 -3 32 2 32 13 0 9 -3 9 -11 1 -7 -7 -17 -7 -35 1 -26 12 -33 36 -9
36 8 0 15 7 15 16 0 11 -6 15 -18 12 -10 -3 -23 1 -30 8 -18 19 -15 26 8 19
14 -5 20 -2 20 10 0 12 -5 15 -21 10 -18 -6 -21 -4 -17 13 4 14 0 22 -13 25
-11 3 -19 14 -19 27 0 13 4 19 11 14 7 -4 6 3 -2 17 -7 13 -12 30 -11 37 2 6
-2 12 -7 12 -5 0 -13 9 -16 20 -3 11 -13 20 -21 20 -8 0 -14 9 -14 20 0 10 -7
23 -16 28 -11 6 -15 17 -11 31 4 18 2 21 -14 16 -12 -4 -19 -2 -19 7 0 11 -2
11 -9 0 -13 -21 -22 11 -14 50 4 21 3 29 -5 24 -6 -3 -16 3 -22 14 -6 11 -17
20 -25 20 -7 0 -23 14 -35 31 -21 29 -21 31 -4 44 15 11 16 15 5 29 -7 8 -21
18 -31 21 -11 4 -17 12 -13 21 3 8 -1 14 -11 14 -9 0 -16 7 -16 15 0 8 -5 15
-11 15 -6 0 -9 7 -6 14 4 10 1 13 -9 9 -7 -3 -14 0 -14 6 0 6 5 11 10 11 6 0
10 7 10 15 0 9 -6 12 -15 9 -11 -4 -15 1 -15 17 0 18 -3 20 -12 11 -19 -19
-30 -14 -18 8 9 17 8 20 -9 20 -13 0 -19 5 -15 14 8 20 -9 27 -45 16 -34 -10
-44 7 -16 30 17 14 20 40 5 40 -5 0 -10 -7 -10 -15 0 -8 -4 -15 -10 -15 -14 0
-13 7 6 34 16 26 5 43 -21 32 -8 -3 -17 -1 -20 4 -3 5 -12 7 -20 3 -8 -3 -15
0 -15 6 0 7 7 14 15 17 13 5 13 9 3 22 -11 12 -11 16 0 20 21 7 -6 32 -34 32
-17 0 -24 6 -24 20 0 13 -5 17 -14 14 -21 -8 -43 35 -25 47 11 6 11 11 1 21
-9 9 -12 9 -12 0 0 -7 -5 -12 -11 -12 -6 0 -9 7 -6 14 4 11 1 13 -10 9 -13 -5
-15 -2 -10 11 5 13 1 19 -13 23 -11 3 -20 11 -20 18 0 8 -9 17 -20 20 -13 4
-20 15 -20 30 0 18 -4 23 -16 18 -13 -5 -15 -2 -10 15 6 17 4 21 -8 16 -16 -6
-21 10 -17 44 2 8 -7 13 -21 12 -13 -1 -27 -1 -33 0 -5 2 -17 3 -25 4 -8 1
-16 11 -18 24 -3 18 -10 22 -38 22 -28 0 -37 5 -46 28 -6 15 -10 36 -9 47 2
25 -44 72 -54 56 -12 -21 -54 -11 -86 22 -18 17 -36 31 -40 30 -5 -2 -5 5 -2
14 5 12 2 15 -10 10 -13 -5 -17 -1 -17 14 0 16 -4 19 -20 14 -12 -4 -27 -1
-35 5 -8 6 -19 9 -25 5 -5 -3 -10 1 -10 9 0 8 -12 24 -27 35 -16 11 -38 31
-50 43 -22 22 -23 22 -38 3 -8 -11 -15 -14 -15 -7 0 6 -11 12 -25 12 -14 0
-25 5 -25 10 0 6 -9 10 -20 10 -11 0 -20 5 -20 10 0 6 -9 10 -20 10 -11 0 -20
5 -20 11 0 6 -6 9 -14 6 -8 -3 -20 1 -26 8 -7 8 -16 12 -21 9 -5 -2 -19 1 -31
9 -13 8 -39 14 -58 13 -19 -1 -40 5 -46 13 -8 11 -15 11 -32 2 -18 -10 -22 -9
-22 3 0 10 -6 13 -15 10 -8 -4 -21 -1 -28 5 -8 6 -32 12 -54 14 -22 2 -46 8
-54 12 -7 5 -26 10 -42 12 -15 2 -37 8 -49 14 -14 8 -23 8 -31 0 -16 -16 -30
-13 -23 4 7 19 10 19 -48 -10z m934 -335 c0 -5 -5 -10 -11 -10 -5 0 -7 5 -4
10 3 6 8 10 11 10 2 0 4 -4 4 -10z m-960 -141 c0 -5 9 -9 20 -9 11 0 20 5 20
11 0 8 5 8 15 -1 10 -9 15 -9 15 -1 0 6 4 11 9 11 5 0 7 -10 3 -22 -5 -23 -5
-23 16 -4 22 19 22 19 22 -2 0 -23 19 -41 21 -20 1 7 1 16 0 21 -1 9 11 9 26
-1 6 -4 11 -16 10 -27 -2 -16 4 -20 34 -21 20 -1 41 -4 48 -8 6 -4 11 -2 11 5
0 9 3 9 14 0 12 -10 17 -8 26 8 13 25 30 28 30 5 0 -8 5 -12 10 -9 6 3 10 2
10 -4 0 -5 -6 -11 -12 -14 -9 -3 -5 -11 11 -26 24 -21 27 -22 71 -26 14 -2 39
-8 55 -15 17 -7 39 -15 49 -17 28 -5 46 -23 46 -44 0 -13 7 -19 21 -19 13 0
23 -8 26 -20 5 -19 6 -20 19 -3 13 17 13 17 14 0 0 -9 11 -22 24 -28 13 -6 28
-21 34 -33 7 -17 19 -22 48 -23 22 -1 45 3 52 9 8 7 12 7 12 -1 0 -6 0 -14 1
-18 0 -5 -10 -11 -23 -15 l-23 -6 23 -7 c12 -4 22 -14 22 -21 0 -8 8 -18 18
-21 29 -11 44 -32 37 -52 -4 -14 1 -20 22 -26 15 -3 38 -16 51 -28 13 -12 26
-20 30 -17 3 3 9 -8 14 -25 4 -18 4 -31 -2 -33 -6 -2 -10 -8 -10 -14 0 -6 8
-4 18 5 25 22 57 -1 47 -35 -8 -23 -8 -23 14 2 l21 25 -10 -27 c-9 -28 -8 -30
20 -32 10 -1 15 -11 14 -32 -1 -26 1 -31 17 -27 14 4 18 1 14 -9 -3 -8 6 -27
20 -44 14 -16 31 -41 38 -56 6 -16 20 -28 29 -28 10 0 18 -6 18 -13 0 -8 11
-20 25 -27 17 -9 23 -19 20 -31 -3 -10 1 -19 10 -23 8 -3 15 -14 15 -25 0 -14
5 -19 15 -15 9 4 15 0 15 -9 0 -8 12 -22 26 -32 19 -12 23 -20 15 -29 -14 -16
22 -52 40 -40 9 5 11 -3 6 -35 -4 -36 -3 -41 11 -37 21 7 53 -13 35 -21 -7 -2
-13 -11 -13 -19 0 -9 4 -13 9 -10 19 12 41 -7 41 -35 0 -20 5 -29 16 -29 11 0
14 -6 10 -22 -3 -13 -3 -17 0 -10 3 6 13 12 21 12 11 0 14 -6 10 -21 -4 -17
-3 -19 6 -10 6 6 18 11 26 10 11 0 12 -2 4 -6 -15 -6 -17 -33 -3 -33 6 0 10
-4 10 -10 0 -5 -9 -10 -20 -10 -26 0 -26 -16 0 -23 11 -3 19 -10 18 -15 -2 -5
8 -19 22 -31 l25 -21 -22 -6 c-13 -3 -23 -11 -23 -16 0 -5 5 -6 10 -3 6 3 10
-1 10 -9 0 -21 37 -40 43 -23 3 7 6 5 6 -5 1 -9 -3 -19 -9 -23 -13 -8 -1 -35
16 -35 8 0 14 -10 14 -25 0 -18 4 -23 15 -19 8 4 15 1 15 -5 0 -6 -5 -11 -10
-11 -7 0 -7 -7 0 -20 8 -15 17 -19 31 -15 13 4 19 2 19 -9 0 -9 5 -16 12 -16
6 0 8 -3 5 -6 -4 -4 -13 -1 -22 6 -9 7 -18 11 -20 8 -9 -8 6 -38 16 -32 5 3 9
-2 9 -10 0 -9 -5 -16 -11 -16 -5 0 -7 -5 -4 -11 5 -6 11 -4 19 7 12 15 13 15
19 -7 4 -13 2 -25 -3 -27 -16 -6 -12 -22 5 -22 8 0 15 -4 15 -10 0 -5 -9 -10
-20 -10 -11 0 -20 -4 -20 -10 0 -5 4 -10 10 -10 5 0 12 -11 16 -25 3 -13 12
-29 20 -36 10 -8 11 -16 3 -30 -7 -14 -6 -19 2 -19 7 0 9 -12 5 -35 -5 -23 -3
-35 4 -35 6 0 8 -5 5 -10 -3 -6 1 -13 10 -16 14 -6 13 -10 -7 -32 -16 -17 -19
-26 -10 -29 6 -3 12 -11 12 -20 0 -10 6 -12 22 -7 l21 6 -20 -26 c-12 -15 -19
-35 -16 -46 7 -26 18 -25 37 2 l16 22 0 -25 c0 -14 -5 -30 -10 -35 -7 -7 -8
-19 -1 -37 6 -15 8 -34 5 -42 -4 -8 -1 -15 5 -15 9 0 9 -5 1 -20 -6 -11 -7
-20 -3 -20 4 0 0 -5 -9 -11 -10 -5 -18 -16 -18 -24 0 -7 -6 -16 -12 -18 -10
-4 -10 -7 -1 -14 7 -5 11 -22 10 -37 -1 -17 4 -31 12 -34 10 -3 12 0 8 11 -3
8 0 18 8 20 34 14 22 -27 -22 -74 -22 -24 -23 -29 -11 -50 7 -13 20 -29 28
-36 13 -10 13 -15 -2 -41 -17 -28 -17 -30 2 -47 25 -22 16 -49 -12 -34 -24 13
-35 5 -19 -15 7 -8 10 -20 7 -25 -4 -5 -2 -12 4 -16 21 -13 9 -27 -17 -21
l-28 6 23 -16 c20 -15 32 -64 15 -64 -5 0 -8 -25 -8 -55 0 -30 -3 -55 -7 -55
-5 0 -8 -13 -8 -30 0 -21 -5 -30 -16 -30 -14 0 -14 -3 -4 -15 11 -13 10 -18
-4 -28 -14 -10 -15 -18 -7 -40 9 -23 7 -31 -9 -47 -11 -11 -20 -26 -20 -34 0
-18 26 -39 39 -31 6 3 8 0 5 -8 -3 -9 -17 -13 -39 -11 -28 2 -34 -1 -37 -19
-2 -14 -10 -22 -22 -22 -11 0 -21 -6 -24 -13 -2 -6 1 -12 7 -12 6 0 11 -5 11
-11 0 -5 -5 -7 -12 -3 -8 5 -9 2 -5 -10 4 -10 1 -19 -9 -23 -13 -5 -12 -9 7
-29 23 -25 21 -28 -21 -24 l-25 2 20 -22 c15 -17 16 -21 5 -20 -34 5 -49 -1
-56 -22 -4 -13 -12 -26 -18 -30 -7 -5 -6 -8 3 -8 10 0 8 -7 -8 -24 -15 -15
-29 -22 -40 -18 -14 5 -14 4 -2 -11 11 -14 11 -18 -3 -23 -9 -3 -14 -10 -11
-14 3 -5 -6 -17 -20 -28 -14 -11 -25 -24 -25 -29 0 -4 -9 -14 -20 -21 -12 -7
-17 -18 -13 -27 3 -10 1 -15 -8 -13 -7 2 -15 -6 -17 -17 -5 -22 -72 -91 -85
-87 -4 1 -10 -6 -14 -15 -4 -10 -12 -21 -19 -26 -7 -4 -15 -20 -19 -36 -4 -19
-11 -28 -20 -25 -7 3 -16 -3 -19 -14 -4 -10 -18 -24 -31 -30 -14 -6 -25 -18
-25 -27 0 -8 -6 -15 -14 -15 -22 0 -68 -41 -62 -56 3 -8 2 -14 -2 -14 -5 0
-18 -9 -30 -21 -12 -11 -27 -17 -34 -13 -7 5 -9 0 -6 -14 4 -12 2 -25 -3 -28
-5 -3 -7 -10 -4 -15 4 -5 0 -9 -8 -9 -8 0 -27 -10 -42 -22 -25 -20 -28 -20
-37 -4 -11 20 -30 12 -21 -9 3 -10 -1 -15 -12 -15 -18 0 -45 -23 -45 -39 0 -6
-8 -11 -17 -12 -33 -1 -78 -35 -77 -57 0 -12 -3 -19 -8 -16 -10 6 -61 -29
-104 -71 -17 -17 -36 -29 -42 -27 -7 2 -12 -3 -12 -12 0 -18 -16 -21 -26 -5
-3 6 -9 7 -13 3 -13 -19 -70 -44 -86 -38 -12 5 -16 2 -13 -12 2 -12 -3 -19
-12 -19 -8 0 -36 -11 -63 -24 -50 -24 -164 -52 -183 -44 -6 2 -14 -3 -17 -11
-4 -9 -18 -16 -32 -16 -14 0 -25 -4 -25 -10 0 -5 -11 -10 -24 -10 -14 0 -27
-4 -30 -8 -3 -5 -20 -6 -38 -4 -29 4 -31 3 -20 -11 11 -13 9 -16 -18 -22 -18
-4 -36 -2 -45 5 -10 8 -15 8 -20 0 -4 -6 -13 -9 -21 -6 -8 3 -14 1 -14 -4 0
-6 -7 -10 -15 -10 -8 0 -15 5 -15 11 0 8 -4 8 -15 -1 -8 -6 -23 -9 -35 -5 -14
4 -20 2 -20 -9 0 -13 -10 -15 -57 -11 -32 3 -59 10 -61 15 -4 12 -32 13 -32 1
0 -5 -23 -7 -52 -5 -38 3 -57 -1 -70 -13 -11 -10 -18 -12 -18 -5 0 7 5 12 12
12 6 0 8 3 5 6 -4 4 -12 2 -19 -4 -17 -13 -93 -8 -112 7 -8 7 -35 10 -68 7
-37 -3 -65 0 -83 10 -21 11 -31 11 -41 3 -11 -9 -17 -9 -28 0 -10 9 -16 8 -26
-4 -9 -11 -16 -12 -25 -5 -7 6 -20 8 -29 4 -11 -4 -16 -1 -16 10 0 15 -9 20
-27 14 -5 -2 -7 -9 -5 -16 2 -6 -2 -12 -8 -12 -5 0 -10 11 -10 24 0 18 -8 27
-31 35 -17 6 -28 15 -25 20 4 5 -9 9 -29 8 -24 -1 -39 4 -50 18 -12 15 -18 17
-22 7 -4 -10 -8 -10 -19 -1 -11 9 -18 8 -30 -2 -15 -12 -16 -11 -10 9 7 20 4
22 -31 24 -21 0 -45 1 -54 0 -9 -1 -19 7 -22 18 -3 11 -22 27 -43 37 -22 10
-40 21 -42 26 -2 4 -11 7 -19 7 -13 0 -13 -2 -2 -17 12 -14 12 -16 -1 -11 -8
2 -16 15 -18 27 -3 16 -8 21 -19 17 -9 -4 -22 -1 -29 5 -7 6 -17 8 -23 5 -5
-3 -11 1 -15 9 -7 20 -26 19 -41 -2 -7 -9 -17 -13 -23 -9 -17 10 -15 26 3 20
9 -4 15 0 15 10 0 9 -6 16 -13 16 -8 0 -25 9 -38 21 l-24 21 -6 -24 -5 -23 -8
23 c-4 12 -16 27 -27 33 -16 8 -18 13 -8 25 7 9 8 14 1 14 -6 0 -12 -5 -14
-12 -6 -18 -37 -1 -48 27 -5 14 -14 25 -19 25 -6 0 -24 13 -41 30 -17 16 -40
30 -52 30 -22 0 -47 26 -48 48 0 25 -43 72 -60 67 -19 -6 -43 36 -34 60 4 8 1
15 -5 15 -6 0 -11 -6 -11 -14 0 -7 -6 -19 -14 -25 -12 -10 -13 -6 -5 26 12 51
11 53 -6 53 -9 0 -15 -9 -15 -25 0 -14 -4 -25 -9 -25 -17 0 -21 16 -11 50 9
33 -1 73 -14 52 -7 -12 -56 28 -56 46 0 7 -7 9 -17 5 -12 -5 -15 -2 -10 10 6
15 3 16 -13 7 -11 -6 -25 -8 -30 -5 -13 8 -13 35 0 35 6 0 10 -5 10 -12 0 -6
3 -8 6 -5 9 9 -16 38 -27 31 -5 -3 -9 6 -9 20 0 14 6 26 13 26 9 0 9 2 -1 8
-7 5 -10 15 -7 23 3 9 -1 15 -12 16 -10 1 -34 5 -53 10 -32 8 -35 12 -32 41 2
18 -1 32 -7 32 -6 0 -7 14 -4 34 6 40 -13 59 -26 25 -8 -23 -8 -23 -13 4 -4
20 -1 27 10 27 10 0 5 9 -14 28 -30 28 -42 71 -21 73 7 0 1 5 -12 10 -15 6
-21 14 -17 25 4 11 -1 18 -14 21 -11 3 -17 9 -14 14 3 5 0 9 -6 9 -7 0 -9 8
-5 20 4 14 2 20 -8 20 -8 0 -17 7 -21 15 -3 8 -15 15 -26 15 -17 0 -20 6 -20
41 0 33 -4 42 -20 46 -18 5 -20 12 -15 58 3 37 0 56 -9 64 -10 8 -12 21 -6 46
4 20 4 35 -1 35 -5 0 -9 -4 -9 -10 0 -5 -4 -10 -9 -10 -14 0 -20 54 -8 69 10
12 9 13 -6 8 -10 -4 -16 -3 -12 2 3 5 0 21 -7 36 -9 19 -9 28 0 37 16 16 15
28 -3 28 -13 0 -15 7 -9 35 5 31 3 36 -20 45 -30 11 -34 18 -10 16 9 0 19 5
22 13 3 9 0 11 -7 7 -18 -11 -41 13 -41 43 0 15 -5 32 -12 39 -9 9 -8 12 8 13
18 0 17 1 -3 16 -26 18 -30 33 -8 33 11 0 13 8 8 30 -4 21 0 36 11 49 13 15
14 20 4 24 -10 3 -10 9 -2 23 9 15 6 25 -14 51 -17 23 -23 41 -19 59 3 20 0
28 -14 31 -11 3 -19 10 -19 15 0 6 8 7 17 3 32 -12 36 -10 43 17 6 19 4 28 -6
32 -19 7 -18 35 1 43 13 5 13 8 -5 20 -24 17 -18 33 10 26 13 -4 20 0 20 10 0
8 -10 17 -22 21 -20 5 -21 7 -7 18 26 21 28 54 7 95 -19 38 -19 38 1 13 25
-31 38 -20 16 14 -18 27 -12 51 11 42 25 -10 15 24 -11 36 l-24 11 19 27 c21
29 18 40 -11 40 -10 0 -21 5 -25 12 -5 7 0 9 14 6 14 -4 22 0 25 13 6 22 -9
36 -16 17 -3 -8 -6 -6 -6 5 -1 18 15 52 37 75 6 7 12 19 12 27 0 7 -6 15 -12
18 -10 3 -8 8 4 18 24 20 28 199 5 237 -6 8 -3 10 7 6 11 -4 16 0 16 10 0 9 5
16 10 16 6 0 10 7 10 15 0 9 6 12 17 8 11 -4 14 -3 9 5 -4 7 -2 12 4 12 6 0 8
5 4 11 -4 8 -9 7 -15 -2 -4 -7 -11 -11 -14 -7 -4 4 5 14 19 23 18 12 26 26 26
46 0 15 5 31 10 34 6 3 10 -1 10 -10 0 -9 5 -13 11 -10 7 5 2 16 -12 31 l-23
25 21 5 c24 7 39 44 17 44 -8 0 -14 4 -14 9 0 4 11 7 24 6 20 -3 26 2 31 26 4
16 11 29 16 29 5 0 9 5 9 10 0 6 -7 10 -17 10 -14 0 -14 2 2 20 17 19 17 20
-6 29 -23 9 -22 10 9 10 30 1 37 8 33 39 -1 8 7 16 18 19 12 3 18 10 15 15 -7
11 25 50 36 43 8 -5 60 68 60 84 0 5 6 12 13 14 8 4 4 12 -13 26 -20 17 -22
21 -7 21 9 0 17 -4 17 -9 0 -20 34 -21 54 -1 18 18 19 22 6 30 -8 5 -11 13 -6
17 5 4 11 2 13 -4 3 -7 10 -13 16 -13 13 0 37 45 37 68 0 9 7 11 20 7 16 -5
20 -2 20 15 0 11 7 23 15 26 8 4 15 12 15 19 0 8 12 15 28 17 19 2 26 8 24 21
-3 20 9 22 26 5 9 -9 12 -8 12 5 0 9 7 17 15 17 8 0 15 9 15 20 0 11 5 20 10
20 6 0 10 -7 10 -15 0 -12 3 -13 19 -3 11 7 17 16 14 22 -4 5 3 7 15 4 15 -4
23 0 27 13 4 10 13 19 21 19 8 0 14 7 14 15 0 9 9 15 25 15 14 0 25 3 25 8 0
11 58 34 70 27 5 -3 10 -1 10 4 0 6 17 11 39 11 42 0 65 18 55 44 -3 9 -2 16
4 16 6 0 12 -5 14 -11 6 -17 48 -1 48 17 0 8 5 12 10 9 6 -3 17 1 25 9 9 8 22
13 30 10 8 -4 15 -2 15 4 0 6 -5 12 -12 14 -7 3 14 3 45 2 49 -2 56 0 46 12
-9 11 -8 14 7 14 11 0 55 16 99 35 44 19 88 32 97 29 9 -3 36 4 59 16 24 11
51 20 61 20 10 0 18 5 18 10 0 6 9 10 20 10 11 0 23 6 26 14 3 8 13 12 23 9
10 -3 36 0 57 6 28 8 40 8 45 -1 6 -9 13 -7 28 6 11 10 24 15 30 12 5 -4 13
-1 16 5 4 5 13 8 21 5 7 -3 16 -1 20 5 3 5 14 7 25 4 11 -4 19 -2 19 4 0 6 7
11 15 11 9 0 18 7 21 15 4 8 11 15 16 15 6 0 8 -6 5 -14 -4 -11 2 -12 31 -4
20 5 55 11 76 14 22 3 47 9 57 14 9 5 19 7 22 4 3 -3 17 2 31 11 21 14 29 15
41 5 9 -7 19 -10 22 -6 4 4 1 11 -6 15 -9 6 -10 11 -2 15 6 4 11 2 11 -4 0 -7
7 -10 14 -7 11 4 13 1 9 -11 -6 -15 -5 -15 10 -3 9 7 26 11 36 8 12 -3 22 1
25 9 8 20 26 17 26 -3 1 -17 1 -17 14 0 14 18 32 24 21 7 -9 -14 51 -5 70 10
8 7 31 14 51 15 22 1 30 -1 22 -6 -10 -7 -9 -9 3 -9 9 0 19 6 22 14 6 15 57
19 57 5z m630 -179 c0 -5 -2 -10 -4 -10 -3 0 -8 5 -11 10 -3 6 -1 10 4 10 6 0
11 -4 11 -10z m270 -220 c0 -5 -7 -10 -16 -10 -8 0 -12 5 -9 10 3 6 10 10 16
10 5 0 9 -4 9 -10z m692 -72 c-7 -7 -12 -8 -12 -2 0 14 12 26 19 19 2 -3 -1
-11 -7 -17z m-32 -68 c0 -5 -2 -10 -4 -10 -3 0 -8 5 -11 10 -3 6 -1 10 4 10 6
0 11 -4 11 -10z m85 -10 c-3 -5 -11 -10 -16 -10 -6 0 -7 5 -4 10 3 6 11 10 16
10 6 0 7 -4 4 -10z m15 -34 c0 -3 -4 -8 -10 -11 -5 -3 -10 -1 -10 4 0 6 5 11
10 11 6 0 10 -2 10 -4z m-305 -366 c17 -33 19 -44 6 -35 -15 8 -41 65 -30 65
4 0 15 -13 24 -30z m725 -191 c6 -11 10 -25 7 -32 -2 -6 -11 3 -19 21 -18 35
-6 45 12 11z m56 -86 c-10 -10 -19 5 -10 18 6 11 8 11 12 0 2 -7 1 -15 -2 -18z
m-582 -37 c-3 -15 -8 -25 -11 -23 -2 3 -1 17 3 31 3 15 8 25 11 23 2 -3 1 -17
-3 -31z m-4694 -56 c0 -5 -4 -10 -10 -10 -5 0 -10 5 -10 10 0 6 5 10 10 10 6
0 10 -4 10 -10z m4828 -192 c-6 -18 -28 -21 -28 -4 0 9 7 16 16 16 9 0 14 -5
12 -12z m57 -118 c3 -5 1 -10 -4 -10 -6 0 -11 5 -11 10 0 6 2 10 4 10 3 0 8
-4 11 -10z m610 -50 c3 -5 -1 -10 -10 -10 -9 0 -13 5 -10 10 3 6 8 10 10 10 2
0 7 -4 10 -10z m55 -281 c0 -24 -23 -21 -28 4 -2 10 3 17 12 17 10 0 16 -9 16
-21z m-45 -79 c3 -5 1 -10 -4 -10 -6 0 -11 5 -11 10 0 6 2 10 4 10 3 0 8 -4
11 -10z m-5047 -328 c6 -18 -15 -14 -22 4 -4 10 -1 14 6 12 6 -2 14 -10 16
-16z m-463 -402 c3 -5 1 -10 -4 -10 -6 0 -11 5 -11 10 0 6 2 10 4 10 3 0 8 -4
11 -10z m5840 -204 c-10 -14 -21 -23 -27 -20 -5 3 1 16 14 28 29 28 34 25 13
-8z m-305 -20 c0 -5 -7 -3 -15 4 -8 7 -12 17 -9 22 7 10 24 -9 24 -26z m-65
14 c3 -5 1 -10 -4 -10 -6 0 -11 5 -11 10 0 6 2 10 4 10 3 0 8 -4 11 -10z m395
-54 c0 -3 -4 -8 -10 -11 -5 -3 -10 -1 -10 4 0 6 5 11 10 11 6 0 10 -2 10 -4z
m-320 -30 c0 -3 -4 -8 -10 -11 -5 -3 -10 -1 -10 4 0 6 5 11 10 11 6 0 10 -2
10 -4z m-5125 -16 c3 -5 1 -10 -4 -10 -6 0 -11 5 -11 10 0 6 2 10 4 10 3 0 8
-4 11 -10z m-370 -10 c-3 -5 -10 -10 -16 -10 -5 0 -9 5 -9 10 0 6 7 10 16 10
8 0 12 -4 9 -10z m-10 -70 c3 -5 -1 -10 -10 -10 -9 0 -13 5 -10 10 3 6 8 10
10 10 2 0 7 -4 10 -10z m45 -50 c0 -5 -4 -10 -10 -10 -5 0 -10 5 -10 10 0 6 5
10 10 10 6 0 10 -4 10 -10z m4890 -70 c0 -5 -4 -10 -10 -10 -5 0 -10 5 -10 10
0 6 5 10 10 10 6 0 10 -4 10 -10z m65 -10 c3 -5 1 -10 -4 -10 -6 0 -11 5 -11
10 0 6 2 10 4 10 3 0 8 -4 11 -10z m-4685 -620 c0 -5 -4 -10 -10 -10 -5 0 -10
5 -10 10 0 6 5 10 10 10 6 0 10 -4 10 -10z m4815 0 c3 -5 1 -10 -4 -10 -6 0
-11 5 -11 10 0 6 2 10 4 10 3 0 8 -4 11 -10z m-55 -54 c0 -3 -4 -8 -10 -11 -5
-3 -10 -1 -10 4 0 6 5 11 10 11 6 0 10 -2 10 -4z m-4040 -50 c0 -3 -4 -8 -10
-11 -5 -3 -10 -1 -10 4 0 6 5 11 10 11 6 0 10 -2 10 -4z m-570 -176 c0 -5 -2
-10 -4 -10 -3 0 -8 5 -11 10 -3 6 -1 10 4 10 6 0 11 -4 11 -10z m885 -170 c3
-5 1 -10 -4 -10 -6 0 -11 5 -11 10 0 6 2 10 4 10 3 0 8 -4 11 -10z m130 -180
c3 -5 1 -10 -4 -10 -6 0 -11 5 -11 10 0 6 2 10 4 10 3 0 8 -4 11 -10z m-680
-49 c3 -5 1 -12 -5 -16 -5 -3 -10 1 -10 9 0 18 6 21 15 7z m25 -61 c0 -5 -5
-10 -11 -10 -5 0 -7 5 -4 10 3 6 8 10 11 10 2 0 4 -4 4 -10z m3700 -20 c0 -5
-5 -10 -11 -10 -5 0 -7 5 -4 10 3 6 8 10 11 10 2 0 4 -4 4 -10z m-3790 -29 c0
-6 -4 -13 -10 -16 -5 -3 -10 1 -10 9 0 9 5 16 10 16 6 0 10 -4 10 -9z m1370
-30 c0 -5 -6 -14 -14 -20 -12 -10 -13 -8 -9 8 5 21 23 30 23 12z m2105 -251
c3 -5 2 -10 -4 -10 -5 0 -13 5 -16 10 -3 6 -2 10 4 10 5 0 13 -4 16 -10z
m-3620 -80 c3 -5 -1 -10 -10 -10 -9 0 -13 5 -10 10 3 6 8 10 10 10 2 0 7 -4
10 -10z m-36 -91 c-19 -11 -24 -3 -8 14 8 9 16 11 18 5 2 -6 -3 -14 -10 -19z
m2636 -89 c3 -5 -1 -10 -9 -10 -9 0 -16 5 -16 10 0 6 4 10 9 10 6 0 13 -4 16
-10z m1685 -40 c0 -5 -2 -10 -4 -10 -3 0 -8 5 -11 10 -3 6 -1 10 4 10 6 0 11
-4 11 -10z m-90 -40 c0 -5 -2 -10 -4 -10 -3 0 -8 5 -11 10 -3 6 -1 10 4 10 6
0 11 -4 11 -10z m-50 -57 c0 -3 -7 -15 -17 -25 -20 -22 -45 -24 -37 -3 4 8 12
15 20 15 8 0 14 5 14 10 0 6 5 10 10 10 6 0 10 -3 10 -7z m-4250 -52 c0 -6 -4
-13 -10 -16 -5 -3 -10 1 -10 9 0 9 5 16 10 16 6 0 10 -4 10 -9z m4065 -41 c3
-5 2 -10 -4 -10 -5 0 -13 5 -16 10 -3 6 -2 10 4 10 5 0 13 -4 16 -10z m-75
-10 c0 -5 -4 -10 -9 -10 -6 0 -13 5 -16 10 -3 6 1 10 9 10 9 0 16 -4 16 -10z
m-3872 -70 c-13 -21 -28 -27 -28 -10 0 5 8 14 18 19 23 14 24 14 10 -9z"/>
<path d="M4985 4570 c3 -5 10 -10 16 -10 5 0 9 5 9 10 0 6 -7 10 -16 10 -8 0
-12 -4 -9 -10z"/>
<path d="M5136 4347 c3 -10 9 -15 12 -12 3 3 0 11 -7 18 -10 9 -11 8 -5 -6z"/>
<path d="M2405 4313 c-3 -9 -12 -12 -25 -8 -13 4 -26 -2 -41 -19 -13 -15 -31
-26 -41 -26 -30 0 -58 -19 -52 -34 3 -9 -3 -17 -15 -21 -12 -3 -21 -13 -21
-21 0 -11 -6 -13 -20 -9 -13 4 -22 1 -26 -9 -3 -9 -13 -16 -21 -16 -10 0 -12
-6 -8 -19 4 -13 -2 -25 -20 -39 -23 -18 -25 -24 -15 -42 7 -12 10 -30 7 -41
-3 -10 1 -23 9 -30 18 -15 18 -24 -2 -43 -8 -9 -11 -16 -5 -16 5 0 13 5 16 10
4 6 11 8 16 4 5 -3 6 -10 3 -16 -4 -6 0 -14 7 -19 7 -4 10 -11 6 -15 -3 -4
-14 -1 -23 7 -14 12 -16 11 -13 -6 3 -12 14 -21 27 -23 21 -3 32 -32 12 -32
-5 0 -10 -8 -10 -17 1 -17 1 -17 14 0 18 23 49 12 41 -14 -6 -19 9 -27 20 -9
8 13 32 3 89 -37 35 -25 55 -33 72 -29 17 5 26 2 30 -9 6 -16 34 -21 34 -7 0
15 52 34 63 23 7 -7 14 -6 21 4 6 8 26 19 44 24 29 9 34 7 42 -12 8 -21 15
-10 11 19 -1 7 5 14 14 18 10 3 15 0 15 -11 0 -11 6 -9 20 10 11 14 17 32 14
41 -7 19 -24 22 -24 4 0 -6 -3 -9 -6 -5 -3 3 -2 13 4 23 6 11 11 13 16 5 4 -6
12 -11 17 -11 6 0 7 5 4 10 -3 6 -3 19 0 30 5 15 14 19 38 17 23 -1 32 3 35
16 2 10 -3 17 -11 17 -17 0 -11 40 7 52 7 5 6 8 -3 8 -7 0 -11 6 -7 15 3 8 1
15 -4 15 -6 0 -10 7 -10 15 0 8 5 15 11 15 5 0 7 5 4 10 -10 16 -21 12 -33
-12 -11 -23 -11 -23 -11 -2 -1 12 6 24 14 28 23 9 18 28 -5 21 -18 -6 -20 -3
-15 18 6 21 2 25 -24 30 -28 6 -30 9 -19 26 11 18 9 24 -16 50 -16 16 -41 35
-57 41 -16 7 -29 16 -29 20 0 4 -8 7 -17 6 -11 0 -17 5 -15 14 2 8 1 12 -3 8
-4 -3 -21 -2 -38 4 -51 16 -86 16 -92 1z"/>
<path d="M4080 4244 c0 -8 5 -12 10 -9 6 3 10 10 10 16 0 5 -4 9 -10 9 -5 0
-10 -7 -10 -16z"/>
<path d="M4020 4229 c0 -7 -11 -10 -30 -7 -16 2 -31 1 -32 -3 -2 -4 -12 -9
-23 -11 -26 -4 -53 -30 -47 -45 2 -7 -1 -13 -7 -13 -6 0 -11 -11 -11 -25 0
-15 -6 -25 -15 -25 -9 0 -12 -6 -9 -15 6 -15 -9 -20 -48 -16 -22 3 -23 -12 -4
-28 11 -9 12 -19 3 -47 -9 -31 -14 -35 -36 -31 -25 5 -25 5 -6 -10 11 -8 27
-18 35 -24 13 -8 13 -10 0 -19 -21 -14 -28 -12 -33 8 -4 13 -5 11 -6 -5 0 -13
4 -23 10 -23 7 0 9 -9 5 -24 -5 -19 0 -29 22 -45 16 -12 23 -24 17 -28 -5 -5
-10 -21 -10 -37 1 -21 7 -31 24 -37 12 -5 20 -13 16 -18 -3 -5 4 -12 15 -16
11 -3 20 -15 20 -26 0 -21 16 -26 23 -6 3 9 7 9 20 -2 10 -7 17 -19 17 -25 0
-7 21 -22 47 -34 39 -18 49 -19 55 -8 6 10 17 12 43 6 33 -7 35 -7 30 13 -2
12 -2 16 1 10 9 -21 31 -15 53 13 17 22 24 24 35 15 8 -7 12 -19 9 -28 -4 -11
-2 -14 8 -11 8 3 13 13 11 22 -2 12 2 17 16 14 10 -2 27 4 37 12 17 14 18 13
13 -7 -4 -13 -2 -23 3 -23 5 0 11 11 15 25 3 14 12 25 20 25 8 0 14 4 14 10 0
5 11 12 24 16 24 6 38 25 40 54 1 8 7 15 15 15 16 0 32 37 20 45 -15 10 3 50
22 50 10 0 21 5 25 11 6 10 -10 8 -53 -8 -7 -3 -13 -1 -13 5 0 6 6 12 13 15 9
3 9 11 -1 38 -8 23 -9 35 -2 37 6 2 3 10 -7 17 -16 12 -16 16 -3 39 10 19 11
29 3 37 -6 6 -9 18 -6 27 4 9 2 13 -4 9 -6 -4 -17 0 -24 9 -8 10 -21 13 -36 9
-25 -6 -30 4 -10 24 10 11 9 13 -4 8 -9 -3 -20 3 -27 14 -7 11 -18 16 -27 13
-8 -4 -15 -2 -15 4 0 5 9 12 21 15 12 3 18 10 14 16 -4 7 -14 6 -29 -4 -20
-13 -25 -13 -35 -2 -6 8 -7 17 -3 22 4 4 -2 3 -14 -3 -21 -11 -60 -6 -81 10
-7 5 -14 5 -18 -2 -7 -11 -57 -5 -86 11 -14 7 -19 6 -19 -2z m20 -19 c0 -5 -4
-10 -10 -10 -5 0 -10 5 -10 10 0 6 5 10 10 10 6 0 10 -4 10 -10z m-54 -27 c-7
-7 -26 7 -26 19 0 6 6 6 15 -2 9 -7 13 -15 11 -17z m-106 -117 c0 -3 -4 -8
-10 -11 -5 -3 -10 -1 -10 4 0 6 5 11 10 11 6 0 10 -2 10 -4z m66 -414 c-4 -3
-14 2 -24 12 -16 18 -16 18 6 6 13 -6 21 -14 18 -18z m34 -2 c0 -5 -5 -10 -11
-10 -5 0 -7 5 -4 10 3 6 8 10 11 10 2 0 4 -4 4 -10z m94 -15 c3 -9 0 -15 -9
-15 -8 0 -15 7 -15 15 0 8 4 15 9 15 5 0 11 -7 15 -15z m-58 -42 c-6 -6 -36 9
-36 18 0 5 9 4 20 -3 10 -7 18 -14 16 -15z"/>
<path d="M2084 4025 c-3 -8 -4 -20 -2 -27 3 -7 7 -1 10 15 6 29 1 36 -8 12z"/>
<path d="M3767 4011 c-4 -17 -3 -21 5 -13 5 5 8 16 6 23 -3 8 -7 3 -11 -10z"/>
<path d="M1044 4005 c8 -8 18 -15 22 -15 3 0 1 7 -6 15 -7 8 -17 15 -22 15 -5
0 -3 -7 6 -15z"/>
<path d="M2790 3971 c0 -5 5 -13 10 -16 6 -3 10 -2 10 4 0 5 -4 13 -10 16 -5
3 -10 2 -10 -4z"/>
<path d="M1030 3960 c0 -5 5 -10 11 -10 5 0 7 5 4 10 -3 6 -8 10 -11 10 -2 0
-4 -4 -4 -10z"/>
<path d="M2120 3830 c0 -5 5 -10 10 -10 6 0 10 5 10 10 0 6 -4 10 -10 10 -5 0
-10 -4 -10 -10z"/>
<path d="M2170 3789 c0 -11 5 -17 10 -14 6 3 10 13 10 21 0 8 -4 14 -10 14 -5
0 -10 -9 -10 -21z"/>
<path d="M2555 3740 c-3 -5 3 -10 14 -10 12 0 21 5 21 10 0 6 -6 10 -14 10 -8
0 -18 -4 -21 -10z"/>
<path d="M2295 3730 c3 -5 8 -10 11 -10 2 0 4 5 4 10 0 6 -5 10 -11 10 -5 0
-7 -4 -4 -10z"/>
<path d="M5487 3323 c-10 -9 -9 -23 1 -23 5 0 9 7 9 15 0 17 -1 18 -10 8z"/>
<path d="M3915 2884 c-12 -12 -19 -13 -29 -5 -8 7 -27 9 -47 5 -19 -4 -49 -7
-67 -6 -28 0 -32 -3 -26 -20 5 -16 2 -19 -14 -14 -11 4 -24 0 -32 -9 -7 -8
-19 -15 -26 -15 -8 0 -14 -5 -14 -10 0 -6 -11 -16 -25 -22 -14 -6 -25 -17 -25
-23 0 -7 -16 -16 -35 -19 -19 -4 -38 -14 -43 -23 -5 -9 -15 -13 -21 -9 -6 4
-9 11 -7 15 3 4 -23 -6 -57 -24 -67 -34 -69 -34 -169 -38 -37 -1 -70 -6 -74
-10 -4 -4 -16 1 -26 10 -17 15 -20 15 -28 3 -9 -13 -14 -7 -11 12 0 4 -11 3
-25 -2 -34 -13 -37 -13 -30 6 5 13 -1 15 -32 13 -38 -2 -90 8 -107 21 -5 5
-29 14 -52 21 -24 6 -43 18 -43 26 0 12 -10 15 -70 18 -16 1 -25 7 -24 17 2
18 -52 33 -80 22 -9 -3 -16 -1 -16 6 0 6 -5 8 -11 5 -6 -4 -16 0 -22 10 -10
13 -18 14 -41 5 -16 -6 -32 -7 -35 -3 -9 12 -73 33 -82 27 -5 -3 -9 -11 -9
-19 0 -13 -29 -29 -38 -20 -3 3 0 5 6 5 7 0 12 9 12 20 0 26 -36 27 -49 2 -5
-10 -21 -24 -34 -31 -14 -8 -28 -24 -31 -37 -4 -13 -13 -24 -22 -24 -8 0 -17
-7 -20 -15 -4 -8 -12 -15 -18 -15 -7 0 -23 -14 -35 -31 -19 -25 -21 -33 -10
-40 19 -12 46 -11 54 1 7 11 35 2 35 -12 0 -6 -7 -8 -15 -5 -8 4 -17 2 -20 -3
-4 -6 -2 -10 2 -10 5 0 15 -15 23 -32 7 -18 16 -37 18 -42 3 -5 0 -6 -6 -2
-14 8 -52 -15 -52 -31 0 -7 7 -13 15 -13 21 0 19 -18 -2 -23 -16 -4 -16 -5 1
-6 15 -1 16 -4 6 -16 -10 -12 -10 -15 1 -15 8 0 20 9 27 20 7 12 17 18 23 14
6 -4 3 -14 -10 -25 -21 -20 -28 -39 -13 -39 4 0 14 6 21 13 10 10 11 9 5 -6
-7 -20 13 -50 28 -41 6 4 14 1 18 -7 7 -10 11 -10 24 0 19 16 22 1 4 -17 -12
-12 -8 -13 58 -17 12 0 29 -9 38 -18 10 -9 24 -17 32 -17 8 0 14 -4 14 -9 0
-5 18 -8 41 -7 32 0 44 -4 58 -23 17 -22 19 -23 28 -6 6 10 15 15 22 11 9 -6
9 -11 0 -22 -9 -11 -7 -14 15 -14 15 0 36 -5 47 -10 16 -9 19 -7 19 10 0 11 5
20 10 20 6 0 10 -12 10 -26 0 -15 4 -23 10 -19 6 4 17 1 25 -5 8 -7 21 -10 29
-7 8 3 20 0 26 -8 9 -11 16 -12 31 -2 14 9 22 9 27 1 4 -6 18 -13 30 -17 23
-5 23 -5 6 14 -9 10 -12 19 -6 19 6 0 14 -4 17 -10 3 -5 13 -10 21 -10 9 0 22
-6 30 -14 16 -17 54 -10 54 10 0 16 16 19 25 4 3 -5 22 -8 43 -7 20 1 51 -5
67 -13 32 -17 72 -19 95 -5 10 6 12 4 7 -8 -9 -23 6 -21 27 2 17 18 58 23 73
8 15 -16 34 -7 28 13 -6 18 -3 19 38 14 40 -6 46 -4 57 16 9 18 18 21 41 16
15 -3 31 -1 34 4 3 6 15 10 26 10 10 0 19 7 19 15 0 8 3 14 8 13 13 -3 67 14
91 29 18 12 25 12 31 3 6 -9 13 -5 25 14 12 19 23 25 36 21 12 -4 21 -1 25 9
3 9 12 16 19 16 7 0 15 7 19 15 3 8 13 15 23 15 21 1 63 33 63 49 0 6 5 11 10
11 6 0 10 7 10 16 0 8 5 12 10 9 6 -3 13 2 17 12 11 29 26 40 45 35 17 -4 23
6 19 35 -1 8 5 10 14 7 8 -3 15 -2 15 4 0 5 9 12 20 15 22 6 28 29 8 26 -25
-3 -38 1 -38 12 0 5 5 7 10 4 17 -11 40 15 40 45 0 38 -28 47 -41 13 -12 -32
-19 -27 -12 10 3 15 12 27 19 27 8 0 14 4 14 10 0 5 -7 7 -15 4 -18 -7 -19 0
-4 28 14 25 4 35 -18 17 -15 -12 -16 -12 -10 4 4 10 7 21 7 23 0 3 5 2 10 -1
6 -3 10 -2 10 4 0 15 -18 23 -22 9 -3 -8 -11 -7 -28 5 -27 19 -44 22 -35 7 8
-13 -4 -50 -16 -50 -6 0 -7 9 -4 20 8 26 -20 38 -47 21 -17 -10 -20 -9 -25 8
-6 22 -29 34 -46 25 -8 -5 -7 -2 1 7 26 28 5 41 -23 13z m13 -46 c-6 -18 -28
-21 -28 -4 0 9 7 16 16 16 9 0 14 -5 12 -12z m67 -58 c3 -5 2 -10 -4 -10 -5 0
-13 5 -16 10 -3 6 -2 10 4 10 5 0 13 -4 16 -10z m-1675 -160 c0 -5 -2 -10 -4
-10 -3 0 -8 5 -11 10 -3 6 -1 10 4 10 6 0 11 -4 11 -10z m-20 -80 c0 -5 -4
-10 -10 -10 -5 0 -10 5 -10 10 0 6 5 10 10 10 6 0 10 -4 10 -10z m460 -270 c0
-5 -4 -10 -10 -10 -5 0 -10 5 -10 10 0 6 5 10 10 10 6 0 10 -4 10 -10z"/>
<path d="M3981 2881 c-10 -7 -10 -10 -1 -16 6 -4 16 -3 22 3 13 13 -4 23 -21
13z"/>
<path d="M990 2830 c0 -5 5 -10 10 -10 6 0 10 5 10 10 0 6 -4 10 -10 10 -5 0
-10 -4 -10 -10z"/>
<path d="M2264 2775 c-4 -10 -13 -13 -25 -10 -11 4 -19 2 -19 -4 0 -15 31 -13
53 3 19 15 22 26 7 26 -6 0 -13 -7 -16 -15z"/>
<path d="M5470 2661 c0 -6 5 -13 10 -16 6 -3 10 1 10 9 0 9 -4 16 -10 16 -5 0
-10 -4 -10 -9z"/>
<path d="M2250 2609 c0 -6 -7 -9 -15 -6 -18 8 -32 -13 -15 -23 7 -4 9 -13 6
-19 -10 -15 9 -14 22 2 16 20 24 57 13 57 -6 0 -11 -5 -11 -11z"/>
<path d="M2180 2540 c0 -5 5 -10 10 -10 6 0 10 5 10 10 0 6 -4 10 -10 10 -5 0
-10 -4 -10 -10z"/>
<path d="M5370 2352 c0 -5 7 -13 16 -16 10 -4 14 -1 12 6 -5 15 -28 23 -28 10z"/>
<path d="M1160 2290 c0 -5 5 -10 11 -10 5 0 7 5 4 10 -3 6 -8 10 -11 10 -2 0
-4 -4 -4 -10z"/>
<path d="M5365 2290 c3 -5 8 -10 11 -10 2 0 4 5 4 10 0 6 -5 10 -11 10 -5 0
-7 -4 -4 -10z"/>
<path d="M3115 2170 c-3 -5 -1 -10 4 -10 6 0 11 5 11 10 0 6 -2 10 -4 10 -3 0
-8 -4 -11 -10z"/>
<path d="M3195 2169 c-4 -6 -5 -13 -2 -16 7 -7 27 6 27 18 0 12 -17 12 -25 -2z"/>
<path d="M1800 1389 c0 -5 5 -7 10 -4 6 3 10 8 10 11 0 2 -4 4 -10 4 -5 0 -10
-5 -10 -11z"/>
<path d="M4650 1370 c-12 -8 -11 -10 8 -10 12 0 22 5 22 10 0 13 -11 13 -30 0z"/>
<path d="M4696 5753 c-3 -3 -3 -10 0 -14 7 -12 34 -11 34 0 0 11 -26 22 -34
14z"/>
<path d="M4836 5642 c-2 -4 4 -13 14 -20 11 -7 21 -8 25 -2 3 5 -3 14 -14 20
-11 5 -22 6 -25 2z"/>
<path d="M5094 5425 c8 -8 18 -15 22 -15 3 0 1 7 -6 15 -7 8 -17 15 -22 15 -5
0 -3 -7 6 -15z"/>
<path d="M5610 4750 c0 -5 5 -10 10 -10 6 0 10 5 10 10 0 6 -4 10 -10 10 -5 0
-10 -4 -10 -10z"/>
<path d="M6060 3750 c0 -5 5 -10 10 -10 6 0 10 5 10 10 0 6 -4 10 -10 10 -5 0
-10 -4 -10 -10z"/>
<path d="M6081 3634 c0 -11 3 -14 6 -6 3 7 2 16 -1 19 -3 4 -6 -2 -5 -13z"/>
<path d="M362 3233 c2 -10 11 -19 21 -21 24 -5 21 15 -4 28 -18 10 -20 9 -17
-7z"/>
<path d="M6450 2466 c0 -10 8 -16 22 -16 12 0 19 1 17 3 -2 1 -12 9 -21 16
-15 12 -18 11 -18 -3z"/>
<path d="M527 2293 c-4 -3 -7 -11 -7 -17 0 -6 5 -5 12 2 6 6 9 14 7 17 -3 3
-9 2 -12 -2z"/>
<path d="M5950 2260 c0 -5 5 -10 11 -10 5 0 7 5 4 10 -3 6 -8 10 -11 10 -2 0
-4 -4 -4 -10z"/>
<path d="M5395 1360 c-3 -5 -1 -10 4 -10 6 0 11 5 11 10 0 6 -2 10 -4 10 -3 0
-8 -4 -11 -10z"/>
<path d="M1114 1284 c3 -9 6 -18 6 -20 0 -3 4 -3 10 1 11 7 2 35 -12 35 -6 0
-7 -7 -4 -16z"/>
<path d="M1240 1080 c0 -5 5 -10 11 -10 5 0 7 5 4 10 -3 6 -8 10 -11 10 -2 0
-4 -4 -4 -10z"/>
<path d="M1280 1000 c0 -5 5 -10 10 -10 6 0 10 5 10 10 0 6 -4 10 -10 10 -5 0
-10 -4 -10 -10z"/>
<path d="M5240 699 c0 -5 5 -7 10 -4 6 3 10 8 10 11 0 2 -4 4 -10 4 -5 0 -10
-5 -10 -11z"/>
<path d="M4735 380 c3 -5 8 -10 11 -10 2 0 4 5 4 10 0 6 -5 10 -11 10 -5 0 -7
-4 -4 -10z"/>
<path d="M5455 329 c-9 -14 -2 -20 14 -10 8 6 9 11 3 15 -6 3 -14 1 -17 -5z"/>
<path d="M5381 268 c-12 -31 -4 -36 19 -11 10 12 16 24 13 27 -12 12 -24 6
-32 -16z"/>
<path d="M4870 270 c0 -5 7 -10 15 -10 8 0 15 5 15 10 0 6 -7 10 -15 10 -8 0
-15 -4 -15 -10z"/>
<path d="M5315 210 c-3 -5 -1 -10 4 -10 6 0 11 5 11 10 0 6 -2 10 -4 10 -3 0
-8 -4 -11 -10z"/>
<path d="M900 189 c0 -5 5 -7 10 -4 6 3 10 8 10 11 0 2 -4 4 -10 4 -5 0 -10
-5 -10 -11z"/>
<path d="M5090 100 c0 -13 28 -25 38 -16 3 4 0 11 -8 16 -20 13 -30 12 -30 0z"/>
<path d="M5035 80 c3 -5 11 -10 16 -10 6 0 7 5 4 10 -3 6 -11 10 -16 10 -6 0
-7 -4 -4 -10z"/>
<path d="M1230 20 c0 -5 5 -10 10 -10 6 0 10 5 10 10 0 6 -4 10 -10 10 -5 0
-10 -4 -10 -10z"/>
</g>
</svg>
